<svg width="260" height="260" viewBox="0 0 260 260" fill="none" xmlns="http://www.w3.org/2000/svg">
<rect width="260" height="260" fill="#0083FC"/>
<path d="M39.2031 108.886V95.1818H98.2145V108.886H77.044V165H60.4077V108.886H39.2031ZM106.456 165V95.1818H155.138V108.886H123.331V123.205H152.649V136.943H123.331V151.295H155.138V165H106.456ZM203.445 116.114C203.217 113.614 202.206 111.67 200.411 110.284C198.638 108.875 196.104 108.17 192.808 108.17C190.626 108.17 188.808 108.455 187.354 109.023C185.899 109.591 184.808 110.375 184.081 111.375C183.354 112.352 182.979 113.477 182.956 114.75C182.911 115.795 183.115 116.716 183.57 117.511C184.047 118.307 184.729 119.011 185.615 119.625C186.524 120.216 187.615 120.739 188.888 121.193C190.161 121.648 191.592 122.045 193.183 122.386L199.183 123.75C202.638 124.5 205.683 125.5 208.32 126.75C210.979 128 213.206 129.489 215.001 131.216C216.82 132.943 218.195 134.932 219.126 137.182C220.058 139.432 220.536 141.955 220.558 144.75C220.536 149.159 219.422 152.943 217.217 156.102C215.013 159.261 211.842 161.682 207.706 163.364C203.592 165.045 198.626 165.886 192.808 165.886C186.967 165.886 181.876 165.011 177.536 163.261C173.195 161.511 169.82 158.852 167.411 155.284C165.001 151.716 163.763 147.205 163.695 141.75H179.854C179.99 144 180.592 145.875 181.661 147.375C182.729 148.875 184.195 150.011 186.058 150.784C187.945 151.557 190.126 151.943 192.604 151.943C194.876 151.943 196.808 151.636 198.399 151.023C200.013 150.409 201.251 149.557 202.115 148.466C202.979 147.375 203.422 146.125 203.445 144.716C203.422 143.398 203.013 142.273 202.217 141.341C201.422 140.386 200.195 139.568 198.536 138.886C196.899 138.182 194.808 137.534 192.263 136.943L184.967 135.239C178.922 133.852 174.161 131.614 170.683 128.523C167.206 125.409 165.479 121.205 165.501 115.909C165.479 111.591 166.638 107.807 168.979 104.557C171.32 101.307 174.558 98.7727 178.695 96.9545C182.831 95.1364 187.547 94.2273 192.842 94.2273C198.251 94.2273 202.945 95.1477 206.922 96.9886C210.922 98.8068 214.024 101.364 216.229 104.659C218.433 107.955 219.558 111.773 219.604 116.114H203.445Z" fill="white"/>
</svg>
