<svg width="403" height="90" viewBox="0 0 403 90" fill="none" xmlns="http://www.w3.org/2000/svg">
<rect y="1" width="86" height="88" rx="4" fill="#0083FC"/>
<path d="M72 88.75C71.1667 88.75 70.4583 88.4583 69.875 87.875C69.2917 87.2917 69 86.5833 69 85.75V4.375C69 3.45833 69.25 2.70833 69.75 2.125C70.3333 1.54167 71.0833 1.25 72 1.25H81.625C82.625 1.25 83.375 1.45833 83.875 1.875C84.375 2.20833 84.8333 2.66667 85.25 3.25L121.25 59.25V4.375C121.25 3.45833 121.5 2.70833 122 2.125C122.583 1.54167 123.333 1.25 124.25 1.25H134.75C135.667 1.25 136.417 1.54167 137 2.125C137.583 2.70833 137.875 3.45833 137.875 4.375V85.625C137.875 86.5417 137.583 87.2917 137 87.875C136.417 88.4583 135.708 88.75 134.875 88.75H125.125C123.708 88.75 122.5 88.0833 121.5 86.75L85.625 32V85.75C85.625 86.6667 85.3333 87.4167 84.75 88C84.1667 88.5 83.4167 88.75 82.5 88.75H72Z" fill="#0083FC"/>
<path d="M160.379 88.75C159.546 88.75 158.837 88.4583 158.254 87.875C157.671 87.2917 157.379 86.5833 157.379 85.75V4.375C157.379 3.45833 157.629 2.70833 158.129 2.125C158.712 1.54167 159.462 1.25 160.379 1.25H215.379C216.296 1.25 217.046 1.54167 217.629 2.125C218.212 2.70833 218.504 3.45833 218.504 4.375V12.625C218.504 13.5417 218.212 14.2917 217.629 14.875C217.046 15.375 216.296 15.625 215.379 15.625H174.254V37.75H212.629C213.546 37.75 214.296 38.0417 214.879 38.625C215.462 39.125 215.754 39.8333 215.754 40.75V48.5C215.754 49.4167 215.462 50.1667 214.879 50.75C214.296 51.25 213.546 51.5 212.629 51.5H174.254V74.375H216.379C217.296 74.375 218.046 74.6667 218.629 75.25C219.212 75.8333 219.504 76.5833 219.504 77.5V85.75C219.504 86.6667 219.212 87.4167 218.629 88C218.046 88.5 217.296 88.75 216.379 88.75H160.379Z" fill="#0083FC"/>
<path d="M249.513 88.75C248.263 88.75 247.263 88.4167 246.513 87.75C245.763 87.0833 245.304 86.1667 245.138 85L230.263 4.875L230.138 3.875C230.138 3.125 230.388 2.5 230.888 2C231.471 1.5 232.096 1.25 232.763 1.25H243.763C245.846 1.25 247.013 2.08333 247.263 3.75L257.638 60.375L268.888 23.75C269.721 21.6667 271.096 20.625 273.013 20.625H279.763C281.846 20.625 283.179 21.6667 283.763 23.75L295.138 60.25L305.513 3.75C305.679 2.83333 306.013 2.20833 306.513 1.875C307.096 1.45833 307.929 1.25 309.013 1.25H320.013C320.679 1.25 321.263 1.5 321.763 2C322.263 2.5 322.513 3.125 322.513 3.875C322.513 4.29167 322.471 4.625 322.388 4.875L307.513 85C307.096 87.5 305.638 88.75 303.138 88.75H294.763C293.596 88.75 292.638 88.4583 291.888 87.875C291.138 87.2917 290.638 86.5417 290.388 85.625L276.388 43.875L262.388 85.625C261.554 87.7083 260.054 88.75 257.888 88.75H249.513Z" fill="#0083FC"/>
<path d="M366.709 90C359.292 90 352.917 88.875 347.584 86.625C342.251 84.375 338.209 81.4167 335.459 77.75C332.709 74.0833 331.251 70.125 331.084 65.875C331.084 65.125 331.334 64.5 331.834 64C332.334 63.5 332.959 63.25 333.709 63.25H344.834C345.834 63.25 346.584 63.4583 347.084 63.875C347.667 64.2083 348.209 64.7917 348.709 65.625C349.542 68.4583 351.459 70.8333 354.459 72.75C357.459 74.6667 361.542 75.625 366.709 75.625C372.626 75.625 377.084 74.6667 380.084 72.75C383.084 70.75 384.584 68 384.584 64.5C384.584 62.1667 383.792 60.25 382.209 58.75C380.709 57.25 378.417 55.9583 375.334 54.875C372.334 53.7917 367.834 52.4583 361.834 50.875C352.001 48.5417 344.792 45.4583 340.209 41.625C335.709 37.7083 333.459 32.1667 333.459 25C333.459 20.1667 334.751 15.875 337.334 12.125C340.001 8.375 343.792 5.41667 348.709 3.25C353.709 1.08333 359.501 0 366.084 0C372.917 0 378.834 1.20833 383.834 3.625C388.834 6.04167 392.626 9.08334 395.209 12.75C397.876 16.3333 399.292 19.9167 399.459 23.5C399.459 24.25 399.209 24.875 398.709 25.375C398.209 25.875 397.584 26.125 396.834 26.125H385.209C383.459 26.125 382.251 25.3333 381.584 23.75C381.084 21.0833 379.417 18.875 376.584 17.125C373.751 15.2917 370.251 14.375 366.084 14.375C361.417 14.375 357.751 15.25 355.084 17C352.417 18.75 351.084 21.2917 351.084 24.625C351.084 26.9583 351.751 28.875 353.084 30.375C354.417 31.875 356.501 33.2083 359.334 34.375C362.251 35.5417 366.417 36.8333 371.834 38.25C379.167 39.9167 385.001 41.7917 389.334 43.875C393.751 45.9583 397.001 48.5833 399.084 51.75C401.167 54.9167 402.209 58.9583 402.209 63.875C402.209 69.2083 400.709 73.875 397.709 77.875C394.792 81.7917 390.626 84.7917 385.209 86.875C379.876 88.9583 373.709 90 366.709 90Z" fill="#0083FC"/>
<path d="M13 37.2955V32.7273H32.6705V37.2955H25.6136V56H20.0682V37.2955H13ZM35.4176 56V32.7273H51.6449V37.2955H41.0426V42.0682H50.8153V46.6477H41.0426V51.4318H51.6449V56H35.4176ZM67.7472 39.7045C67.6714 38.8712 67.3343 38.2235 66.7358 37.7614C66.1449 37.2917 65.3002 37.0568 64.2017 37.0568C63.4744 37.0568 62.8684 37.1515 62.3835 37.3409C61.8987 37.5303 61.535 37.7917 61.2926 38.125C61.0502 38.4508 60.9252 38.8258 60.9176 39.25C60.9025 39.5985 60.9706 39.9053 61.1222 40.1705C61.2813 40.4356 61.5085 40.6705 61.804 40.875C62.107 41.072 62.4706 41.2462 62.8949 41.3977C63.3191 41.5492 63.7964 41.6818 64.3267 41.7955L66.3267 42.25C67.4782 42.5 68.4934 42.8333 69.3722 43.25C70.2585 43.6667 71.0009 44.1629 71.5994 44.7386C72.2055 45.3144 72.6638 45.9773 72.9744 46.7273C73.285 47.4773 73.4441 48.3182 73.4517 49.25C73.4441 50.7197 73.0729 51.9811 72.3381 53.0341C71.6032 54.0871 70.5464 54.8939 69.1676 55.4545C67.7964 56.0152 66.1411 56.2955 64.2017 56.2955C62.2547 56.2955 60.5578 56.0038 59.1108 55.4205C57.6638 54.8371 56.5388 53.9508 55.7358 52.7614C54.9328 51.572 54.5199 50.0682 54.4972 48.25H59.8835C59.929 49 60.1297 49.625 60.4858 50.125C60.8419 50.625 61.3305 51.0038 61.9517 51.2614C62.5805 51.5189 63.3078 51.6477 64.1335 51.6477C64.8911 51.6477 65.535 51.5455 66.0653 51.3409C66.6032 51.1364 67.0161 50.8523 67.304 50.4886C67.5919 50.125 67.7396 49.7083 67.7472 49.2386C67.7396 48.7992 67.6032 48.4242 67.3381 48.1136C67.0729 47.7955 66.6638 47.5227 66.1108 47.2955C65.5653 47.0606 64.8684 46.8447 64.0199 46.6477L61.5881 46.0795C59.5729 45.6174 57.9858 44.8712 56.8267 43.8409C55.6676 42.803 55.0919 41.4015 55.0994 39.6364C55.0919 38.197 55.4782 36.9356 56.2585 35.8523C57.0388 34.7689 58.1184 33.9242 59.4972 33.3182C60.8759 32.7121 62.4479 32.4091 64.2131 32.4091C66.0161 32.4091 67.5805 32.7159 68.9062 33.3295C70.2396 33.9356 71.2737 34.7879 72.0085 35.8864C72.7434 36.9848 73.1184 38.2576 73.1335 39.7045H67.7472Z" fill="white"/>
</svg>
