<svg width="430" height="93" viewBox="0 0 430 93" fill="none" xmlns="http://www.w3.org/2000/svg">
<path d="M129.705 2.18474H129.305V2.58474V61.1859H126.762L94.8305 2.39383L94.7169 2.18474H94.479H70.8729H70.4729V2.58474V89.6236V90.0236H70.8729H87.5072H87.9072V89.6236V31.0225H90.4494L122.381 89.8145L122.495 90.0236H122.733H146.339H146.739V89.6236V2.58474V2.18474H146.339H129.705ZM232.874 73.4105V73.0105H232.474H185.172V53.3307H220.854H221.254V52.9307V37.0833V36.6833H220.854H185.172V19.1979H231.128H231.528V18.7979V2.58474V2.18474H231.128H166.548H166.148V2.58474V89.6236V90.0236H166.548H232.474H232.874V89.6236V73.4105ZM283.235 28.5158H282.931L282.849 28.8086L272.045 67.6467H269.527L262.228 2.54018L262.188 2.18474H261.83H244.34H243.889L243.943 2.63218L254.339 89.671L254.381 90.0236H254.736H281.4H281.708L281.787 89.7262L293.327 46.2604H295.891L307.31 89.7252L307.388 90.0236H307.697H334.361H334.716L334.758 89.671L345.154 2.63218L345.208 2.18474H344.757H327.511H327.154L327.114 2.53945L319.693 67.6467H317.296L306.37 28.8075L306.288 28.5158H305.985H283.235ZM426.921 26.8778H427.373L427.318 26.4285C426.326 18.441 422.684 12.1239 416.396 7.50544C410.195 2.89147 402.278 0.6 392.674 0.6C382.418 0.6 374.284 3.09467 368.32 8.13048C362.362 13.1614 359.372 19.489 359.372 27.0873C359.372 33.7892 361.261 39.1879 365.076 43.2394C368.885 47.2846 374.573 49.943 382.086 51.2524L398.716 54.1773C398.716 54.1774 398.717 54.1775 398.718 54.1777C402.598 54.903 405.457 56.0633 407.34 57.627L407.346 57.632C409.266 59.1631 410.253 61.4714 410.253 64.6334C410.253 67.9076 408.857 70.4667 406.029 72.3459L406.024 72.3488C403.259 74.2385 399.475 75.2047 394.631 75.2047C388.882 75.2047 384.453 74.1646 381.302 72.1297C378.165 70.1046 376.254 67.0698 375.578 62.9834L375.522 62.6487H375.183H356.592H356.148L356.194 63.0897C357.101 71.8871 360.862 78.8569 367.478 83.9669C374.091 89.0749 382.91 91.6083 393.897 91.6083C405.287 91.6083 414.078 88.9952 420.21 83.7095L420.212 83.7075C426.33 78.3515 429.4 71.7009 429.4 63.7801C429.4 56.6718 427.398 50.9288 423.361 46.5934C419.329 42.2642 413.306 39.3816 405.344 37.909L405.342 37.9087L389.075 34.983L389.075 34.983C385.478 34.3386 382.833 33.2892 381.093 31.867C379.37 30.4588 378.519 28.6723 378.519 26.4778C378.519 23.3613 379.796 21.0559 382.362 19.506L382.369 19.5014C384.979 17.846 388.323 17.0036 392.429 17.0036C396.953 17.0036 400.479 17.8198 403.042 19.412C405.593 20.996 407.226 23.3689 407.939 26.5648L408.009 26.8778H408.329H426.921Z" fill="#FF5533" stroke="#FF5533" stroke-width="0.8"/>
<rect y="2" width="88.5042" height="88.6" fill="#FF5533"/>
<path d="M9.45117 40.9574V35.8182H31.5804V40.9574H23.6415V62H17.4029V40.9574H9.45117ZM34.671 62V35.8182H52.9267V40.9574H40.9991V46.3267H51.9934V51.4787H40.9991V56.8608H52.9267V62H34.671ZM71.0417 43.6676C70.9565 42.7301 70.5772 42.0014 69.9039 41.4815C69.2392 40.9531 68.2889 40.6889 67.0531 40.6889C66.2349 40.6889 65.5531 40.7955 65.0076 41.0085C64.4622 41.2216 64.0531 41.5156 63.7804 41.8906C63.5076 42.2571 63.367 42.679 63.3585 43.1562C63.3414 43.5483 63.4181 43.8935 63.5886 44.1918C63.7676 44.4901 64.0233 44.7543 64.3556 44.9844C64.6966 45.206 65.1056 45.402 65.5829 45.5724C66.0602 45.7429 66.5971 45.892 67.1937 46.0199L69.4437 46.5312C70.7392 46.8125 71.8812 47.1875 72.8699 47.6562C73.867 48.125 74.7022 48.6832 75.3755 49.331C76.0574 49.9787 76.573 50.7244 76.9224 51.5682C77.2718 52.4119 77.4508 53.358 77.4593 54.4062C77.4508 56.0597 77.0332 57.4787 76.2065 58.6634C75.3798 59.848 74.1909 60.7557 72.6397 61.3864C71.0971 62.017 69.2349 62.3324 67.0531 62.3324C64.8627 62.3324 62.9537 62.0043 61.3258 61.348C59.698 60.6918 58.4324 59.6946 57.5289 58.3565C56.6255 57.0185 56.161 55.3267 56.1355 53.2812H62.1951C62.2463 54.125 62.4721 54.8281 62.8727 55.3906C63.2733 55.9531 63.823 56.3793 64.5218 56.669C65.2292 56.9588 66.0474 57.1037 66.9764 57.1037C67.8287 57.1037 68.5531 56.9886 69.1497 56.7585C69.7548 56.5284 70.2193 56.2088 70.5431 55.7997C70.867 55.3906 71.0332 54.9219 71.0417 54.3935C71.0332 53.8991 70.8798 53.4773 70.5815 53.1278C70.2832 52.7699 69.823 52.4631 69.2008 52.2074C68.5872 51.9432 67.8031 51.7003 66.8485 51.4787L64.1127 50.8395C61.8457 50.3196 60.0602 49.4801 58.7562 48.321C57.4522 47.1534 56.8045 45.5767 56.813 43.5909C56.8045 41.9716 57.2392 40.5526 58.117 39.3338C58.9949 38.1151 60.2093 37.1648 61.7605 36.483C63.3116 35.8011 65.0801 35.4602 67.0659 35.4602C69.0943 35.4602 70.8542 35.8054 72.3457 36.4957C73.8457 37.1776 75.0091 38.1364 75.8358 39.3722C76.6625 40.608 77.0843 42.0398 77.1014 43.6676H71.0417Z" fill="white"/>
</svg>
